<svg width="1011" height="535" viewBox="0 0 1011 535" fill="none" xmlns="http://www.w3.org/2000/svg">
<rect width="1011" height="535" fill="black"/>
<g>
<path d="M37 87H272.5V126.5H175V304H134.5V126.5H37V87Z" fill="white"/>
<path d="M272.5 196.5C272.5 146.786 312.286 107 362 107H498V146.5H352.5C330.57 146.5 312.5 164.57 312.5 186.5V196.5H498V235.5H312.5V246C312.5 267.93 330.57 286 352.5 286H498V325.5H362C312.286 325.5 272.5 285.714 272.5 236V196.5Z" fill="white"/>
<path d="M518 196.5C518 146.786 557.786 107 607.5 107H743.5V146.5H598C576.07 146.5 558 164.57 558 186.5V196.5H743.5V235.5H558V246C558 267.93 576.07 286 598 286H743.5V325.5H607.5C557.786 325.5 518 285.714 518 236V196.5Z" fill="white"/>
<path d="M762.5 87H803V176.5H943.5V87H984V304H943.5V216.5H803V304H762.5V87Z" fill="white"/>
<rect x="37" y="342" width="150" height="100" fill="#6547FF"/>
<path d="M187 342H290.5V360H210.5C206.082 360 202.5 363.582 202.5 368C202.5 370.28 204.039 372.357 206.5 373L274 392C287.31 395.81 294 403.2 294 415C294 428.255 283.255 439 270 439H187V421H267C269.761 421 272 418.761 272 416C272 413.239 269.761 411 267 411L205.5 394C192.19 390.19 185.5 382.8 185.5 371C185.5 356.745 197.245 345 211.5 345H290.5V342H187Z" fill="white"/>
<path d="M330 389C330 365.909 348.909 347 372 347H433V366H364C354.611 366 347 373.611 347 383V401C347 410.389 354.611 418 364 418H433V437H372C348.909 437 330 418.091 330 395V389Z" fill="white"/>
<path d="M461 342H481V381H551V342H571V437H551V400H481V437H461V342Z" fill="white"/>
<path d="M592 342H612V366H672V342H692V437H672V385H612V437H592V342Z" fill="white"/>
<path d="M712 389C712 365.909 730.909 347 754 347H814C837.091 347 856 365.909 856 389V395C856 418.091 837.091 437 814 437H754C730.909 437 712 418.091 712 395V389ZM732 389V395C732 409.912 744.088 422 759 422H809C823.912 422 836 409.912 836 395V389C836 374.088 823.912 362 809 362H759C744.088 362 732 374.088 732 389Z" fill="white"/>
<path d="M880 342H900V407C900 418.046 908.954 427 920 427H984V446H920C898.909 446 881 428.091 881 407V342H880Z" fill="white"/>
</g>
</svg>


